<svg xmlns="http://www.w3.org/2000/svg" viewBox="0 0 1200 850"><defs><pattern id="hatch" width="6" height="6" patternUnits="userSpaceOnUse" patternTransform="rotate(45)"><path d="M0 0V6" stroke="#718088" stroke-width="1"/></pattern></defs><style>text{font-family:Arial,sans-serif;fill:#243e49}.small{font-size:12px;letter-spacing:1px}.line{fill:none;stroke:#254451;stroke-width:1.2}.fine{fill:none;stroke:#82969b;stroke-width:.6}.dash{fill:none;stroke:#82969b;stroke-width:.7;stroke-dasharray:7 6}</style><rect width="1200" height="850" fill="#f6f4ee"/><rect x="25" y="25" width="1150" height="800" class="fine"/><text x="55" y="67" font-size="27">STRUCTURE / 100</text><text x="55" y="92" class="small">LEVEL 055 / TERRACE PLAN · +324.00 m</text><path d="M55 115H1145 M55 755H1145" class="fine"/><text x="55" y="785" class="small">THE COMMON VOID / GLASS + CONCRETE / TWO-BLOCK MAXIMUM WIDTH</text><text x="55" y="807" font-size="10">ART STUDY / Imagined dimensions in metres. Architectural expression, not construction documentation.</text><text x="1030" y="790" font-size="22">P-055</text><circle cx="425" cy="422" r="133.2665850861967" fill="#dce8e8" stroke="#163843" stroke-width="2"/><circle cx="425" cy="422" r="103.94793636723342" fill="#e8dfce" stroke="#5b7b86"/><circle cx="425" cy="422" r="73.29662179740819" fill="#f6f4ee" stroke="#244b58" stroke-width="2"/><circle cx="425" cy="422" r="76.22462179740819" class="fine"/><circle cx="503.1766217974082" cy="422.0" r="1.6" fill="#ad6848"/><circle cx="500.5128180061495" cy="442.2335986029461" r="1.6" fill="#ad6848"/><circle cx="492.70294045860373" cy="461.0883108987041" r="1.6" fill="#ad6848"/><circle cx="480.2792194032034" cy="477.2792194032034" r="1.6" fill="#ad6848"/><circle cx="464.0883108987041" cy="489.70294045860373" r="1.6" fill="#ad6848"/><circle cx="445.2335986029461" cy="497.5128180061495" r="1.6" fill="#ad6848"/><circle cx="425.0" cy="500.1766217974082" r="1.6" fill="#ad6848"/><circle cx="404.7664013970539" cy="497.5128180061495" r="1.6" fill="#ad6848"/><circle cx="385.9116891012959" cy="489.70294045860373" r="1.6" fill="#ad6848"/><circle cx="369.7207805967966" cy="477.2792194032034" r="1.6" fill="#ad6848"/><circle cx="357.29705954139627" cy="461.0883108987041" r="1.6" fill="#ad6848"/><circle cx="349.4871819938505" cy="442.23359860294613" r="1.6" fill="#ad6848"/><circle cx="346.8233782025918" cy="422.0" r="1.6" fill="#ad6848"/><circle cx="349.4871819938505" cy="401.7664013970539" r="1.6" fill="#ad6848"/><circle cx="357.2970595413962" cy="382.9116891012959" r="1.6" fill="#ad6848"/><circle cx="369.7207805967966" cy="366.72078059679666" r="1.6" fill="#ad6848"/><circle cx="385.9116891012959" cy="354.29705954139627" r="1.6" fill="#ad6848"/><circle cx="404.7664013970539" cy="346.4871819938505" r="1.6" fill="#ad6848"/><circle cx="425.0" cy="343.8233782025918" r="1.6" fill="#ad6848"/><circle cx="445.2335986029461" cy="346.4871819938505" r="1.6" fill="#ad6848"/><circle cx="464.0883108987041" cy="354.29705954139627" r="1.6" fill="#ad6848"/><circle cx="480.27921940320334" cy="366.7207805967966" r="1.6" fill="#ad6848"/><circle cx="492.70294045860373" cy="382.9116891012959" r="1.6" fill="#ad6848"/><circle cx="500.5128180061495" cy="401.76640139705387" r="1.6" fill="#ad6848"/><path d="M331.57107325262507 515.3131088312882L259.26461360572665 587.5299347451721" stroke="#718578" stroke-width="9.76"/><circle cx="259.26461360572665" cy="587.5299347451721" r="4.88" fill="#526b60"/><text x="267.26461360572665" y="579.5299347451721" font-size="9">S1</text><path d="M331.6868911687118 328.57107325262507L259.47006525482794 256.26461360572665" stroke="#718578" stroke-width="9.76"/><circle cx="259.47006525482794" cy="256.26461360572665" r="4.88" fill="#526b60"/><text x="267.47006525482794" y="248.26461360572665" font-size="9">S2</text><path d="M518.4289267473749 328.6868911687118L590.7353863942733 256.4700652548279" stroke="#718578" stroke-width="9.76"/><circle cx="590.7353863942733" cy="256.4700652548279" r="4.88" fill="#526b60"/><text x="598.7353863942733" y="248.4700652548279" font-size="9">S3</text><path d="M518.3131088312882 515.4289267473749L590.5299347451721 587.7353863942733" stroke="#718578" stroke-width="9.76"/><circle cx="590.5299347451721" cy="587.7353863942733" r="4.88" fill="#526b60"/><text x="598.5299347451721" y="579.7353863942733" font-size="9">S4</text><text x="425" y="426" text-anchor="middle" font-size="10">VOID</text><path d="M291.7334149138033 700H558.2665850861968m0 -5v10M291.7334149138033 695v10" class="line"/><text x="425" y="726" text-anchor="middle" class="small">109.23 m / THIS LEVEL</text><text x="760" y="220" font-size="12">01 / Glass outer enclosure</text><text x="760" y="248" font-size="12">02 / Enclosed perimeter rooms</text><text x="760" y="276" font-size="12">03 / Shared inward-facing terrace</text><text x="760" y="304" font-size="12">04 / Transparent atrium balustrade</text><text x="760" y="332" font-size="12">05 / Four exterior stair landings</text><text x="760" y="360" font-size="12">06 / Open, unobstructed centre</text><text x="760" y="388" font-size="12"></text><text x="760" y="416" font-size="12">Terrace depth / 12.56 m</text><text x="760" y="444" font-size="12">Atrium diameter / 60.08 m</text><text x="760" y="472" font-size="12">Floor-to-floor / 6.00 m</text><text x="760" y="500" font-size="12">Terraces follow the hourglass curve.</text><text x="760" y="528" font-size="12">Four deeply pinched 25-floor bays.</text><text x="760" y="556" font-size="12">4 m stairways / bridges every floor.</text><path d="M760 680h122m-122 -5v10m61 -10v10m61 -10v10" class="line"/><text x="760" y="703" font-size="11">0　　　　　 25　　　　 50 m</text></svg>