<svg xmlns="http://www.w3.org/2000/svg" viewBox="0 0 1200 850"><defs><pattern id="hatch" width="6" height="6" patternUnits="userSpaceOnUse" patternTransform="rotate(45)"><path d="M0 0V6" stroke="#718088" stroke-width="1"/></pattern></defs><style>text{font-family:Arial,sans-serif;fill:#243e49}.small{font-size:12px;letter-spacing:1px}.line{fill:none;stroke:#254451;stroke-width:1.2}.fine{fill:none;stroke:#82969b;stroke-width:.6}.dash{fill:none;stroke:#82969b;stroke-width:.7;stroke-dasharray:7 6}</style><rect width="1200" height="850" fill="#f6f4ee"/><rect x="25" y="25" width="1150" height="800" class="fine"/><text x="55" y="67" font-size="27">STRUCTURE / 100</text><text x="55" y="92" class="small">LEVEL 023 / TERRACE PLAN · +132.00 m</text><path d="M55 115H1145 M55 755H1145" class="fine"/><text x="55" y="785" class="small">THE COMMON VOID / GLASS + CONCRETE / TWO-BLOCK MAXIMUM WIDTH</text><text x="55" y="807" font-size="10">ART STUDY / Imagined dimensions in metres. Architectural expression, not construction documentation.</text><text x="1030" y="790" font-size="22">P-023</text><circle cx="425" cy="422" r="187.95044424223482" fill="#dce8e8" stroke="#163843" stroke-width="2"/><circle cx="425" cy="422" r="146.60134650894318" fill="#e8dfce" stroke="#5b7b86"/><circle cx="425" cy="422" r="103.37274433322916" fill="#f6f4ee" stroke="#244b58" stroke-width="2"/><circle cx="425" cy="422" r="106.30074433322918" class="fine"/><circle cx="533.2527443332292" cy="422.0" r="1.6" fill="#ad6848"/><circle cx="529.5641215181337" cy="450.0178719180537" r="1.6" fill="#ad6848"/><circle cx="518.7496266219584" cy="476.1263721666146" r="1.6" fill="#ad6848"/><circle cx="501.54624960007993" cy="498.54624960007993" r="1.6" fill="#ad6848"/><circle cx="479.1263721666146" cy="515.7496266219584" r="1.6" fill="#ad6848"/><circle cx="453.0178719180537" cy="526.5641215181337" r="1.6" fill="#ad6848"/><circle cx="425.0" cy="530.2527443332292" r="1.6" fill="#ad6848"/><circle cx="396.9821280819463" cy="526.5641215181337" r="1.6" fill="#ad6848"/><circle cx="370.87362783338546" cy="515.7496266219584" r="1.6" fill="#ad6848"/><circle cx="348.45375039992007" cy="498.54624960007993" r="1.6" fill="#ad6848"/><circle cx="331.2503733780416" cy="476.1263721666146" r="1.6" fill="#ad6848"/><circle cx="320.4358784818664" cy="450.01787191805374" r="1.6" fill="#ad6848"/><circle cx="316.7472556667708" cy="422.0" r="1.6" fill="#ad6848"/><circle cx="320.4358784818663" cy="393.9821280819463" r="1.6" fill="#ad6848"/><circle cx="331.25037337804156" cy="367.87362783338546" r="1.6" fill="#ad6848"/><circle cx="348.45375039992" cy="345.45375039992007" r="1.6" fill="#ad6848"/><circle cx="370.87362783338534" cy="328.2503733780416" r="1.6" fill="#ad6848"/><circle cx="396.9821280819463" cy="317.4358784818663" r="1.6" fill="#ad6848"/><circle cx="425.0" cy="313.7472556667708" r="1.6" fill="#ad6848"/><circle cx="453.01787191805363" cy="317.4358784818663" r="1.6" fill="#ad6848"/><circle cx="479.1263721666146" cy="328.2503733780416" r="1.6" fill="#ad6848"/><circle cx="501.54624960007993" cy="345.45375039992" r="1.6" fill="#ad6848"/><circle cx="518.7496266219583" cy="367.87362783338534" r="1.6" fill="#ad6848"/><circle cx="529.5641215181336" cy="393.9821280819462" r="1.6" fill="#ad6848"/><path d="M251.47994942212696 353.0141256897127L207.33149494019256 335.4621498705417" stroke="#718578" stroke-width="9.76"/><circle cx="207.33149494019256" cy="335.4621498705417" r="4.88" fill="#526b60"/><text x="215.33149494019256" y="327.4621498705417" font-size="9">S1</text><path d="M493.98587431028716 248.47994942212694L511.5378501294582 204.33149494019253" stroke="#718578" stroke-width="9.76"/><circle cx="511.5378501294582" cy="204.33149494019253" r="4.88" fill="#526b60"/><text x="519.5378501294582" y="196.33149494019253" font-size="9">S2</text><path d="M598.520050577873 490.98587431028716L642.6685050598074 508.5378501294582" stroke="#718578" stroke-width="9.76"/><circle cx="642.6685050598074" cy="508.5378501294582" r="4.88" fill="#526b60"/><text x="650.6685050598074" y="500.5378501294582" font-size="9">S3</text><path d="M356.01412568971284 595.5200505778731L338.4621498705418 639.6685050598076" stroke="#718578" stroke-width="9.76"/><circle cx="338.4621498705418" cy="639.6685050598076" r="4.88" fill="#526b60"/><text x="346.4621498705418" y="631.6685050598076" font-size="9">S4</text><text x="425" y="426" text-anchor="middle" font-size="10">VOID</text><path d="M237.04955575776518 700H612.9504442422349m0 -5v10M237.04955575776518 695v10" class="line"/><text x="425" y="726" text-anchor="middle" class="small">154.06 m / THIS LEVEL</text><text x="760" y="220" font-size="12">01 / Glass outer enclosure</text><text x="760" y="248" font-size="12">02 / Enclosed perimeter rooms</text><text x="760" y="276" font-size="12">03 / Shared inward-facing terrace</text><text x="760" y="304" font-size="12">04 / Transparent atrium balustrade</text><text x="760" y="332" font-size="12">05 / Four exterior stair landings</text><text x="760" y="360" font-size="12">06 / Open, unobstructed centre</text><text x="760" y="388" font-size="12"></text><text x="760" y="416" font-size="12">Terrace depth / 17.72 m</text><text x="760" y="444" font-size="12">Atrium diameter / 84.73 m</text><text x="760" y="472" font-size="12">Floor-to-floor / 6.00 m</text><text x="760" y="500" font-size="12">Terraces follow the hourglass curve.</text><text x="760" y="528" font-size="12">Four deeply pinched 25-floor bays.</text><text x="760" y="556" font-size="12">4 m stairways / bridges every floor.</text><path d="M760 680h122m-122 -5v10m61 -10v10m61 -10v10" class="line"/><text x="760" y="703" font-size="11">0　　　　　 25　　　　 50 m</text></svg>