<svg xmlns="http://www.w3.org/2000/svg" viewBox="0 0 1200 850"><defs><pattern id="hatch" width="6" height="6" patternUnits="userSpaceOnUse" patternTransform="rotate(45)"><path d="M0 0V6" stroke="#718088" stroke-width="1"/></pattern></defs><style>text{font-family:Arial,sans-serif;fill:#243e49}.small{font-size:12px;letter-spacing:1px}.line{fill:none;stroke:#254451;stroke-width:1.2}.fine{fill:none;stroke:#82969b;stroke-width:.6}.dash{fill:none;stroke:#82969b;stroke-width:.7;stroke-dasharray:7 6}</style><rect width="1200" height="850" fill="#f6f4ee"/><rect x="25" y="25" width="1150" height="800" class="fine"/><text x="55" y="67" font-size="27">STRUCTURE / 100</text><text x="55" y="92" class="small">LEVEL 043 / TERRACE PLAN · +252.00 m</text><path d="M55 115H1145 M55 755H1145" class="fine"/><text x="55" y="785" class="small">THE COMMON VOID / GLASS + CONCRETE / TWO-BLOCK MAXIMUM WIDTH</text><text x="55" y="807" font-size="10">ART STUDY / Imagined dimensions in metres. Architectural expression, not construction documentation.</text><text x="1030" y="790" font-size="22">P-043</text><circle cx="425" cy="422" r="114.27106147719981" fill="#dce8e8" stroke="#163843" stroke-width="2"/><circle cx="425" cy="422" r="89.13142795221586" fill="#e8dfce" stroke="#5b7b86"/><circle cx="425" cy="422" r="62.8490838124599" fill="#f6f4ee" stroke="#244b58" stroke-width="2"/><circle cx="425" cy="422" r="65.77708381245989" class="fine"/><circle cx="492.7290838124599" cy="422.0" r="1.6" fill="#ad6848"/><circle cx="490.4212712453519" cy="439.5295767980095" r="1.6" fill="#ad6848"/><circle cx="483.65510715663567" cy="455.86454190622993" r="1.6" fill="#ad6848"/><circle cx="472.89169444734245" cy="469.8916944473424" r="1.6" fill="#ad6848"/><circle cx="458.86454190623" cy="480.65510715663567" r="1.6" fill="#ad6848"/><circle cx="442.5295767980095" cy="487.4212712453519" r="1.6" fill="#ad6848"/><circle cx="425.0" cy="489.7290838124599" r="1.6" fill="#ad6848"/><circle cx="407.4704232019905" cy="487.4212712453519" r="1.6" fill="#ad6848"/><circle cx="391.13545809377007" cy="480.65510715663567" r="1.6" fill="#ad6848"/><circle cx="377.1083055526576" cy="469.89169444734245" r="1.6" fill="#ad6848"/><circle cx="366.34489284336433" cy="455.86454190622993" r="1.6" fill="#ad6848"/><circle cx="359.5787287546481" cy="439.5295767980095" r="1.6" fill="#ad6848"/><circle cx="357.2709161875401" cy="422.0" r="1.6" fill="#ad6848"/><circle cx="359.5787287546481" cy="404.4704232019905" r="1.6" fill="#ad6848"/><circle cx="366.34489284336433" cy="388.13545809377007" r="1.6" fill="#ad6848"/><circle cx="377.10830555265755" cy="374.1083055526576" r="1.6" fill="#ad6848"/><circle cx="391.13545809377" cy="363.34489284336433" r="1.6" fill="#ad6848"/><circle cx="407.4704232019905" cy="356.5787287546481" r="1.6" fill="#ad6848"/><circle cx="425.0" cy="354.2709161875401" r="1.6" fill="#ad6848"/><circle cx="442.52957679800943" cy="356.57872875464807" r="1.6" fill="#ad6848"/><circle cx="458.86454190623" cy="363.34489284336433" r="1.6" fill="#ad6848"/><circle cx="472.8916944473424" cy="374.10830555265755" r="1.6" fill="#ad6848"/><circle cx="483.65510715663567" cy="388.13545809377" r="1.6" fill="#ad6848"/><circle cx="490.4212712453519" cy="404.47042320199046" r="1.6" fill="#ad6848"/><path d="M527.4359985553402 469.8268617106741L637.2457585808882 521.0964962267756" stroke="#718578" stroke-width="9.76"/><circle cx="637.2457585808882" cy="521.0964962267756" r="4.88" fill="#526b60"/><text x="645.2457585808882" y="513.0964962267756" font-size="9">S1</text><path d="M377.17313828932583 524.4359985553401L325.90350377322426 634.245758580888" stroke="#718578" stroke-width="9.76"/><circle cx="325.90350377322426" cy="634.245758580888" r="4.88" fill="#526b60"/><text x="333.90350377322426" y="626.245758580888" font-size="9">S2</text><path d="M322.5640014446597 374.173138289326L212.75424141911176 322.90350377322466" stroke="#718578" stroke-width="9.76"/><circle cx="212.75424141911176" cy="322.90350377322466" r="4.88" fill="#526b60"/><text x="220.75424141911176" y="314.90350377322466" font-size="9">S3</text><path d="M472.82686171067417 319.5640014446598L524.0964962267757 209.7542414191119" stroke="#718578" stroke-width="9.76"/><circle cx="524.0964962267757" cy="209.7542414191119" r="4.88" fill="#526b60"/><text x="532.0964962267757" y="201.7542414191119" font-size="9">S4</text><text x="425" y="426" text-anchor="middle" font-size="10">VOID</text><path d="M310.7289385228002 700H539.2710614771999m0 -5v10M310.7289385228002 695v10" class="line"/><text x="425" y="726" text-anchor="middle" class="small">93.66 m / THIS LEVEL</text><text x="760" y="220" font-size="12">01 / Glass outer enclosure</text><text x="760" y="248" font-size="12">02 / Enclosed perimeter rooms</text><text x="760" y="276" font-size="12">03 / Shared inward-facing terrace</text><text x="760" y="304" font-size="12">04 / Transparent atrium balustrade</text><text x="760" y="332" font-size="12">05 / Four exterior stair landings</text><text x="760" y="360" font-size="12">06 / Open, unobstructed centre</text><text x="760" y="388" font-size="12"></text><text x="760" y="416" font-size="12">Terrace depth / 10.77 m</text><text x="760" y="444" font-size="12">Atrium diameter / 51.52 m</text><text x="760" y="472" font-size="12">Floor-to-floor / 6.00 m</text><text x="760" y="500" font-size="12">Terraces follow the hourglass curve.</text><text x="760" y="528" font-size="12">Four deeply pinched 25-floor bays.</text><text x="760" y="556" font-size="12">4 m stairways / bridges every floor.</text><path d="M760 680h122m-122 -5v10m61 -10v10m61 -10v10" class="line"/><text x="760" y="703" font-size="11">0　　　　　 25　　　　 50 m</text></svg>