<svg xmlns="http://www.w3.org/2000/svg" viewBox="0 0 1200 850"><defs><pattern id="hatch" width="6" height="6" patternUnits="userSpaceOnUse" patternTransform="rotate(45)"><path d="M0 0V6" stroke="#718088" stroke-width="1"/></pattern></defs><style>text{font-family:Arial,sans-serif;fill:#243e49}.small{font-size:12px;letter-spacing:1px}.line{fill:none;stroke:#254451;stroke-width:1.2}.fine{fill:none;stroke:#82969b;stroke-width:.6}.dash{fill:none;stroke:#82969b;stroke-width:.7;stroke-dasharray:7 6}</style><rect width="1200" height="850" fill="#f6f4ee"/><rect x="25" y="25" width="1150" height="800" class="fine"/><text x="55" y="67" font-size="27">STRUCTURE / 100</text><text x="55" y="92" class="small">LEVEL 029 / TERRACE PLAN · +168.00 m</text><path d="M55 115H1145 M55 755H1145" class="fine"/><text x="55" y="785" class="small">THE COMMON VOID / GLASS + CONCRETE / TWO-BLOCK MAXIMUM WIDTH</text><text x="55" y="807" font-size="10">ART STUDY / Imagined dimensions in metres. Architectural expression, not construction documentation.</text><text x="1030" y="790" font-size="22">P-029</text><circle cx="425" cy="422" r="157.00053803113153" fill="#dce8e8" stroke="#163843" stroke-width="2"/><circle cx="425" cy="422" r="122.4604196642826" fill="#e8dfce" stroke="#5b7b86"/><circle cx="425" cy="422" r="86.35029591712235" fill="#f6f4ee" stroke="#244b58" stroke-width="2"/><circle cx="425" cy="422" r="89.27829591712235" class="fine"/><circle cx="516.2302959171224" cy="422.0" r="1.6" fill="#ad6848"/><circle cx="513.1216989663426" cy="445.61213807369" r="1.6" fill="#ad6848"/><circle cx="504.0077538589997" cy="467.6151479585612" r="1.6" fill="#ad6848"/><circle cx="489.50956089265264" cy="486.5095608926526" r="1.6" fill="#ad6848"/><circle cx="470.6151479585612" cy="501.0077538589997" r="1.6" fill="#ad6848"/><circle cx="448.61213807369" cy="510.1216989663426" r="1.6" fill="#ad6848"/><circle cx="425.0" cy="513.2302959171224" r="1.6" fill="#ad6848"/><circle cx="401.38786192631" cy="510.1216989663426" r="1.6" fill="#ad6848"/><circle cx="379.3848520414388" cy="501.0077538589997" r="1.6" fill="#ad6848"/><circle cx="360.4904391073474" cy="486.50956089265264" r="1.6" fill="#ad6848"/><circle cx="345.9922461410003" cy="467.6151479585612" r="1.6" fill="#ad6848"/><circle cx="336.8783010336574" cy="445.61213807369" r="1.6" fill="#ad6848"/><circle cx="333.76970408287764" cy="422.0" r="1.6" fill="#ad6848"/><circle cx="336.8783010336574" cy="398.38786192631" r="1.6" fill="#ad6848"/><circle cx="345.9922461410003" cy="376.3848520414389" r="1.6" fill="#ad6848"/><circle cx="360.49043910734736" cy="357.4904391073474" r="1.6" fill="#ad6848"/><circle cx="379.38485204143876" cy="342.99224614100035" r="1.6" fill="#ad6848"/><circle cx="401.38786192631" cy="333.8783010336574" r="1.6" fill="#ad6848"/><circle cx="425.0" cy="330.76970408287764" r="1.6" fill="#ad6848"/><circle cx="448.61213807368995" cy="333.87830103365735" r="1.6" fill="#ad6848"/><circle cx="470.6151479585612" cy="342.9922461410003" r="1.6" fill="#ad6848"/><circle cx="489.5095608926526" cy="357.49043910734736" r="1.6" fill="#ad6848"/><circle cx="504.00775385899965" cy="376.38485204143876" r="1.6" fill="#ad6848"/><circle cx="513.1216989663426" cy="398.38786192630994" r="1.6" fill="#ad6848"/><path d="M389.1232839903971 270.40700122487476L371.05383917463456 194.05660936933526" stroke="#718578" stroke-width="9.76"/><circle cx="371.05383917463456" cy="194.05660936933526" r="4.88" fill="#526b60"/><text x="379.05383917463456" y="186.05660936933526" font-size="9">S1</text><path d="M576.5929987751252 386.1232839903971L652.9433906306647 368.05383917463456" stroke="#718578" stroke-width="9.76"/><circle cx="652.9433906306647" cy="368.05383917463456" r="4.88" fill="#526b60"/><text x="660.9433906306647" y="360.05383917463456" font-size="9">S2</text><path d="M460.8767160096029 573.5929987751252L478.94616082536544 649.9433906306647" stroke="#718578" stroke-width="9.76"/><circle cx="478.94616082536544" cy="649.9433906306647" r="4.88" fill="#526b60"/><text x="486.94616082536544" y="641.9433906306647" font-size="9">S3</text><path d="M273.40700122487476 457.8767160096029L197.0566093693353 475.9461608253655" stroke="#718578" stroke-width="9.76"/><circle cx="197.0566093693353" cy="475.9461608253655" r="4.88" fill="#526b60"/><text x="205.0566093693353" y="467.9461608253655" font-size="9">S4</text><text x="425" y="426" text-anchor="middle" font-size="10">VOID</text><path d="M267.99946196886845 700H582.0005380311316m0 -5v10M267.99946196886845 695v10" class="line"/><text x="425" y="726" text-anchor="middle" class="small">128.69 m / THIS LEVEL</text><text x="760" y="220" font-size="12">01 / Glass outer enclosure</text><text x="760" y="248" font-size="12">02 / Enclosed perimeter rooms</text><text x="760" y="276" font-size="12">03 / Shared inward-facing terrace</text><text x="760" y="304" font-size="12">04 / Transparent atrium balustrade</text><text x="760" y="332" font-size="12">05 / Four exterior stair landings</text><text x="760" y="360" font-size="12">06 / Open, unobstructed centre</text><text x="760" y="388" font-size="12"></text><text x="760" y="416" font-size="12">Terrace depth / 14.80 m</text><text x="760" y="444" font-size="12">Atrium diameter / 70.78 m</text><text x="760" y="472" font-size="12">Floor-to-floor / 6.00 m</text><text x="760" y="500" font-size="12">Terraces follow the hourglass curve.</text><text x="760" y="528" font-size="12">Four deeply pinched 25-floor bays.</text><text x="760" y="556" font-size="12">4 m stairways / bridges every floor.</text><path d="M760 680h122m-122 -5v10m61 -10v10m61 -10v10" class="line"/><text x="760" y="703" font-size="11">0　　　　　 25　　　　 50 m</text></svg>