<svg xmlns="http://www.w3.org/2000/svg" viewBox="0 0 1200 850"><defs><pattern id="hatch" width="6" height="6" patternUnits="userSpaceOnUse" patternTransform="rotate(45)"><path d="M0 0V6" stroke="#718088" stroke-width="1"/></pattern></defs><style>text{font-family:Arial,sans-serif;fill:#243e49}.small{font-size:12px;letter-spacing:1px}.line{fill:none;stroke:#254451;stroke-width:1.2}.fine{fill:none;stroke:#82969b;stroke-width:.6}.dash{fill:none;stroke:#82969b;stroke-width:.7;stroke-dasharray:7 6}</style><rect width="1200" height="850" fill="#f6f4ee"/><rect x="25" y="25" width="1150" height="800" class="fine"/><text x="55" y="67" font-size="27">STRUCTURE / 100</text><text x="55" y="92" class="small">LEVEL 077 / TERRACE PLAN · +456.00 m</text><path d="M55 115H1145 M55 755H1145" class="fine"/><text x="55" y="785" class="small">THE COMMON VOID / GLASS + CONCRETE / TWO-BLOCK MAXIMUM WIDTH</text><text x="55" y="807" font-size="10">ART STUDY / Imagined dimensions in metres. Architectural expression, not construction documentation.</text><text x="1030" y="790" font-size="22">P-077</text><circle cx="425" cy="422" r="212.47227019107234" fill="#dce8e8" stroke="#163843" stroke-width="2"/><circle cx="425" cy="422" r="165.72837074903643" fill="#e8dfce" stroke="#5b7b86"/><circle cx="425" cy="422" r="116.85974860508979" fill="#f6f4ee" stroke="#244b58" stroke-width="2"/><circle cx="425" cy="422" r="119.7877486050898" class="fine"/><circle cx="546.7397486050897" cy="422.0" r="1.6" fill="#ad6848"/><circle cx="542.5915672635948" cy="453.5085654849903" r="1.6" fill="#ad6848"/><circle cx="530.4297149423389" cy="482.8698743025449" r="1.6" fill="#ad6848"/><circle cx="511.0830017786045" cy="508.0830017786045" r="1.6" fill="#ad6848"/><circle cx="485.86987430254493" cy="527.4297149423389" r="1.6" fill="#ad6848"/><circle cx="456.5085654849903" cy="539.5915672635948" r="1.6" fill="#ad6848"/><circle cx="425.0" cy="543.7397486050897" r="1.6" fill="#ad6848"/><circle cx="393.49143451500976" cy="539.5915672635948" r="1.6" fill="#ad6848"/><circle cx="364.1301256974551" cy="527.4297149423389" r="1.6" fill="#ad6848"/><circle cx="338.9169982213955" cy="508.0830017786045" r="1.6" fill="#ad6848"/><circle cx="319.57028505766107" cy="482.8698743025449" r="1.6" fill="#ad6848"/><circle cx="307.4084327364052" cy="453.5085654849903" r="1.6" fill="#ad6848"/><circle cx="303.2602513949102" cy="422.0" r="1.6" fill="#ad6848"/><circle cx="307.4084327364052" cy="390.4914345150097" r="1.6" fill="#ad6848"/><circle cx="319.57028505766107" cy="361.1301256974551" r="1.6" fill="#ad6848"/><circle cx="338.91699822139543" cy="335.9169982213955" r="1.6" fill="#ad6848"/><circle cx="364.13012569745507" cy="316.57028505766107" r="1.6" fill="#ad6848"/><circle cx="393.49143451500976" cy="304.4084327364052" r="1.6" fill="#ad6848"/><circle cx="425.0" cy="300.2602513949102" r="1.6" fill="#ad6848"/><circle cx="456.5085654849902" cy="304.4084327364052" r="1.6" fill="#ad6848"/><circle cx="485.86987430254493" cy="316.57028505766107" r="1.6" fill="#ad6848"/><circle cx="511.0830017786045" cy="335.91699822139543" r="1.6" fill="#ad6848"/><circle cx="530.4297149423389" cy="361.13012569745507" r="1.6" fill="#ad6848"/><circle cx="542.5915672635948" cy="390.49143451500964" r="1.6" fill="#ad6848"/><path d="M619.0481992822673 338.49659877471277L640.1638425412727 329.4100520419501" stroke="#718578" stroke-width="9.76"/><circle cx="640.1638425412727" cy="329.4100520419501" r="4.88" fill="#526b60"/><text x="648.1638425412727" y="321.4100520419501" font-size="9">S1</text><path d="M508.50340122528723 616.0481992822673L517.58994795805 637.1638425412727" stroke="#718578" stroke-width="9.76"/><circle cx="517.58994795805" cy="637.1638425412727" r="4.88" fill="#526b60"/><text x="525.58994795805" y="629.1638425412727" font-size="9">S2</text><path d="M230.9518007177327 505.5034012252873L209.83615745872729 514.58994795805" stroke="#718578" stroke-width="9.76"/><circle cx="209.83615745872729" cy="514.58994795805" r="4.88" fill="#526b60"/><text x="217.83615745872729" y="506.58994795804995" font-size="9">S3</text><path d="M341.49659877471305 227.95180071773254L332.41005204195045 206.8361574587271" stroke="#718578" stroke-width="9.76"/><circle cx="332.41005204195045" cy="206.8361574587271" r="4.88" fill="#526b60"/><text x="340.41005204195045" y="198.8361574587271" font-size="9">S4</text><text x="425" y="426" text-anchor="middle" font-size="10">VOID</text><path d="M212.52772980892766 700H637.4722701910723m0 -5v10M212.52772980892766 695v10" class="line"/><text x="425" y="726" text-anchor="middle" class="small">174.16 m / THIS LEVEL</text><text x="760" y="220" font-size="12">01 / Glass outer enclosure</text><text x="760" y="248" font-size="12">02 / Enclosed perimeter rooms</text><text x="760" y="276" font-size="12">03 / Shared inward-facing terrace</text><text x="760" y="304" font-size="12">04 / Transparent atrium balustrade</text><text x="760" y="332" font-size="12">05 / Four exterior stair landings</text><text x="760" y="360" font-size="12">06 / Open, unobstructed centre</text><text x="760" y="388" font-size="12"></text><text x="760" y="416" font-size="12">Terrace depth / 20.03 m</text><text x="760" y="444" font-size="12">Atrium diameter / 95.79 m</text><text x="760" y="472" font-size="12">Floor-to-floor / 6.00 m</text><text x="760" y="500" font-size="12">Terraces follow the hourglass curve.</text><text x="760" y="528" font-size="12">Four deeply pinched 25-floor bays.</text><text x="760" y="556" font-size="12">4 m stairways / bridges every floor.</text><path d="M760 680h122m-122 -5v10m61 -10v10m61 -10v10" class="line"/><text x="760" y="703" font-size="11">0　　　　　 25　　　　 50 m</text></svg>