<svg xmlns="http://www.w3.org/2000/svg" viewBox="0 0 1200 850"><defs><pattern id="hatch" width="6" height="6" patternUnits="userSpaceOnUse" patternTransform="rotate(45)"><path d="M0 0V6" stroke="#718088" stroke-width="1"/></pattern></defs><style>text{font-family:Arial,sans-serif;fill:#243e49}.small{font-size:12px;letter-spacing:1px}.line{fill:none;stroke:#254451;stroke-width:1.2}.fine{fill:none;stroke:#82969b;stroke-width:.6}.dash{fill:none;stroke:#82969b;stroke-width:.7;stroke-dasharray:7 6}</style><rect width="1200" height="850" fill="#f6f4ee"/><rect x="25" y="25" width="1150" height="800" class="fine"/><text x="55" y="67" font-size="27">STRUCTURE / 100</text><text x="55" y="92" class="small">LEVEL 058 / TERRACE PLAN · +342.00 m</text><path d="M55 115H1145 M55 755H1145" class="fine"/><text x="55" y="785" class="small">THE COMMON VOID / GLASS + CONCRETE / TWO-BLOCK MAXIMUM WIDTH</text><text x="55" y="807" font-size="10">ART STUDY / Imagined dimensions in metres. Architectural expression, not construction documentation.</text><text x="1030" y="790" font-size="22">P-058</text><circle cx="425" cy="422" r="79.91555008100457" fill="#dce8e8" stroke="#163843" stroke-width="2"/><circle cx="425" cy="422" r="62.33412906318357" fill="#e8dfce" stroke="#5b7b86"/><circle cx="425" cy="422" r="43.953552544552515" fill="#f6f4ee" stroke="#244b58" stroke-width="2"/><circle cx="425" cy="422" r="46.88155254455251" class="fine"/><circle cx="473.8335525445525" cy="422.0" r="1.6" fill="#ad6848"/><circle cx="472.1695895922275" cy="434.63905343854486" r="1.6" fill="#ad6848"/><circle cx="467.2910970606247" cy="446.41677627227625" r="1.6" fill="#ad6848"/><circle cx="459.53053615368265" cy="456.53053615368265" r="1.6" fill="#ad6848"/><circle cx="449.41677627227625" cy="464.2910970606247" r="1.6" fill="#ad6848"/><circle cx="437.63905343854486" cy="469.1695895922275" r="1.6" fill="#ad6848"/><circle cx="425.0" cy="470.8335525445525" r="1.6" fill="#ad6848"/><circle cx="412.36094656145514" cy="469.1695895922275" r="1.6" fill="#ad6848"/><circle cx="400.58322372772375" cy="464.2910970606247" r="1.6" fill="#ad6848"/><circle cx="390.46946384631735" cy="456.53053615368265" r="1.6" fill="#ad6848"/><circle cx="382.7089029393753" cy="446.41677627227625" r="1.6" fill="#ad6848"/><circle cx="377.8304104077725" cy="434.63905343854486" r="1.6" fill="#ad6848"/><circle cx="376.1664474554475" cy="422.0" r="1.6" fill="#ad6848"/><circle cx="377.8304104077725" cy="409.36094656145514" r="1.6" fill="#ad6848"/><circle cx="382.7089029393753" cy="397.58322372772375" r="1.6" fill="#ad6848"/><circle cx="390.4694638463173" cy="387.46946384631735" r="1.6" fill="#ad6848"/><circle cx="400.58322372772375" cy="379.7089029393753" r="1.6" fill="#ad6848"/><circle cx="412.36094656145514" cy="374.8304104077725" r="1.6" fill="#ad6848"/><circle cx="425.0" cy="373.1664474554475" r="1.6" fill="#ad6848"/><circle cx="437.6390534385448" cy="374.8304104077725" r="1.6" fill="#ad6848"/><circle cx="449.41677627227625" cy="379.7089029393753" r="1.6" fill="#ad6848"/><circle cx="459.53053615368265" cy="387.46946384631735" r="1.6" fill="#ad6848"/><circle cx="467.2910970606247" cy="397.58322372772375" r="1.6" fill="#ad6848"/><circle cx="472.1695895922275" cy="409.3609465614551" r="1.6" fill="#ad6848"/><path d="M349.93124405238996 445.6150689821152L201.55527694935566 492.2910615997571" stroke="#718578" stroke-width="9.76"/><circle cx="201.55527694935566" cy="492.2910615997571" r="4.88" fill="#526b60"/><text x="209.55527694935566" y="484.2910615997571" font-size="9">S1</text><path d="M401.3849310178848 346.93124405238996L354.7089384002429 198.55527694935566" stroke="#718578" stroke-width="9.76"/><circle cx="354.7089384002429" cy="198.55527694935566" r="4.88" fill="#526b60"/><text x="362.7089384002429" y="190.55527694935566" font-size="9">S2</text><path d="M500.06875594761004 398.3849310178848L648.4447230506444 351.70893840024286" stroke="#718578" stroke-width="9.76"/><circle cx="648.4447230506444" cy="351.70893840024286" r="4.88" fill="#526b60"/><text x="656.4447230506444" y="343.70893840024286" font-size="9">S3</text><path d="M448.6150689821152 497.06875594761004L495.29106159975714 645.4447230506444" stroke="#718578" stroke-width="9.76"/><circle cx="495.29106159975714" cy="645.4447230506444" r="4.88" fill="#526b60"/><text x="503.29106159975714" y="637.4447230506444" font-size="9">S4</text><text x="425" y="426" text-anchor="middle" font-size="10">VOID</text><path d="M345.08444991899546 700H504.91555008100454m0 -5v10M345.08444991899546 695v10" class="line"/><text x="425" y="726" text-anchor="middle" class="small">65.50 m / THIS LEVEL</text><text x="760" y="220" font-size="12">01 / Glass outer enclosure</text><text x="760" y="248" font-size="12">02 / Enclosed perimeter rooms</text><text x="760" y="276" font-size="12">03 / Shared inward-facing terrace</text><text x="760" y="304" font-size="12">04 / Transparent atrium balustrade</text><text x="760" y="332" font-size="12">05 / Four exterior stair landings</text><text x="760" y="360" font-size="12">06 / Open, unobstructed centre</text><text x="760" y="388" font-size="12"></text><text x="760" y="416" font-size="12">Terrace depth / 7.53 m</text><text x="760" y="444" font-size="12">Atrium diameter / 36.03 m</text><text x="760" y="472" font-size="12">Floor-to-floor / 6.00 m</text><text x="760" y="500" font-size="12">Terraces follow the hourglass curve.</text><text x="760" y="528" font-size="12">Four deeply pinched 25-floor bays.</text><text x="760" y="556" font-size="12">4 m stairways / bridges every floor.</text><path d="M760 680h122m-122 -5v10m61 -10v10m61 -10v10" class="line"/><text x="760" y="703" font-size="11">0　　　　　 25　　　　 50 m</text></svg>