<svg xmlns="http://www.w3.org/2000/svg" viewBox="0 0 1200 850"><defs><pattern id="hatch" width="6" height="6" patternUnits="userSpaceOnUse" patternTransform="rotate(45)"><path d="M0 0V6" stroke="#718088" stroke-width="1"/></pattern></defs><style>text{font-family:Arial,sans-serif;fill:#243e49}.small{font-size:12px;letter-spacing:1px}.line{fill:none;stroke:#254451;stroke-width:1.2}.fine{fill:none;stroke:#82969b;stroke-width:.6}.dash{fill:none;stroke:#82969b;stroke-width:.7;stroke-dasharray:7 6}</style><rect width="1200" height="850" fill="#f6f4ee"/><rect x="25" y="25" width="1150" height="800" class="fine"/><text x="55" y="67" font-size="27">STRUCTURE / 100</text><text x="55" y="92" class="small">LEVEL 076 / TERRACE PLAN · +450.00 m</text><path d="M55 115H1145 M55 755H1145" class="fine"/><text x="55" y="785" class="small">THE COMMON VOID / GLASS + CONCRETE / TWO-BLOCK MAXIMUM WIDTH</text><text x="55" y="807" font-size="10">ART STUDY / Imagined dimensions in metres. Architectural expression, not construction documentation.</text><text x="1030" y="790" font-size="22">P-076</text><circle cx="425" cy="422" r="244.0" fill="#dce8e8" stroke="#163843" stroke-width="2"/><circle cx="425" cy="422" r="190.32" fill="#e8dfce" stroke="#5b7b86"/><circle cx="425" cy="422" r="134.20000000000002" fill="#f6f4ee" stroke="#244b58" stroke-width="2"/><circle cx="425" cy="422" r="137.12800000000001" class="fine"/><circle cx="564.08" cy="422.0" r="1.6" fill="#ad6848"/><circle cx="559.3409639202837" cy="457.9965527928586" r="1.6" fill="#ad6848"/><circle cx="545.4468131583398" cy="491.53999999999996" r="1.6" fill="#ad6848"/><circle cx="523.344411127425" cy="520.344411127425" r="1.6" fill="#ad6848"/><circle cx="494.54" cy="542.4468131583398" r="1.6" fill="#ad6848"/><circle cx="460.9965527928586" cy="556.3409639202837" r="1.6" fill="#ad6848"/><circle cx="425.0" cy="561.08" r="1.6" fill="#ad6848"/><circle cx="389.00344720714145" cy="556.3409639202837" r="1.6" fill="#ad6848"/><circle cx="355.46000000000004" cy="542.4468131583398" r="1.6" fill="#ad6848"/><circle cx="326.655588872575" cy="520.344411127425" r="1.6" fill="#ad6848"/><circle cx="304.55318684166025" cy="491.53999999999996" r="1.6" fill="#ad6848"/><circle cx="290.6590360797164" cy="457.9965527928586" r="1.6" fill="#ad6848"/><circle cx="285.91999999999996" cy="422.0" r="1.6" fill="#ad6848"/><circle cx="290.6590360797164" cy="386.0034472071414" r="1.6" fill="#ad6848"/><circle cx="304.55318684166025" cy="352.46000000000004" r="1.6" fill="#ad6848"/><circle cx="326.6555888725749" cy="323.655588872575" r="1.6" fill="#ad6848"/><circle cx="355.4599999999999" cy="301.5531868416603" r="1.6" fill="#ad6848"/><circle cx="389.00344720714145" cy="287.6590360797164" r="1.6" fill="#ad6848"/><circle cx="425.0" cy="282.91999999999996" r="1.6" fill="#ad6848"/><circle cx="460.99655279285855" cy="287.6590360797163" r="1.6" fill="#ad6848"/><circle cx="494.54" cy="301.55318684166025" r="1.6" fill="#ad6848"/><circle cx="523.344411127425" cy="323.6555888725749" r="1.6" fill="#ad6848"/><circle cx="545.4468131583396" cy="352.4599999999999" r="1.6" fill="#ad6848"/><circle cx="559.3409639202836" cy="386.0034472071413" r="1.6" fill="#ad6848"/><path d="M629.8708641010744 291.7308269678544L622.664351293499 296.31315968757815" stroke="#718578" stroke-width="9.76"/><circle cx="622.664351293499" cy="296.31315968757815" r="4.88" fill="#526b60"/><text x="630.664351293499" y="288.31315968757815" font-size="9">S1</text><path d="M555.2691730321457 626.8708641010744L550.686840312422 619.664351293499" stroke="#718578" stroke-width="9.76"/><circle cx="550.686840312422" cy="619.664351293499" r="4.88" fill="#526b60"/><text x="558.686840312422" y="611.664351293499" font-size="9">S2</text><path d="M220.1291358989256 552.2691730321457L227.33564870650105 547.686840312422" stroke="#718578" stroke-width="9.76"/><circle cx="227.33564870650105" cy="547.686840312422" r="4.88" fill="#526b60"/><text x="235.33564870650105" y="539.686840312422" font-size="9">S3</text><path d="M294.730826967854 217.12913589892582L299.3131596875777 224.3356487065013" stroke="#718578" stroke-width="9.76"/><circle cx="299.3131596875777" cy="224.3356487065013" r="4.88" fill="#526b60"/><text x="307.3131596875777" y="216.3356487065013" font-size="9">S4</text><text x="425" y="426" text-anchor="middle" font-size="10">VOID</text><path d="M181.0 700H669.0m0 -5v10M181.0 695v10" class="line"/><text x="425" y="726" text-anchor="middle" class="small">200.00 m / THIS LEVEL</text><text x="760" y="220" font-size="12">01 / Glass outer enclosure</text><text x="760" y="248" font-size="12">02 / Enclosed perimeter rooms</text><text x="760" y="276" font-size="12">03 / Shared inward-facing terrace</text><text x="760" y="304" font-size="12">04 / Transparent atrium balustrade</text><text x="760" y="332" font-size="12">05 / Four exterior stair landings</text><text x="760" y="360" font-size="12">06 / Open, unobstructed centre</text><text x="760" y="388" font-size="12"></text><text x="760" y="416" font-size="12">Terrace depth / 23.00 m</text><text x="760" y="444" font-size="12">Atrium diameter / 110.00 m</text><text x="760" y="472" font-size="12">Floor-to-floor / 6.00 m</text><text x="760" y="500" font-size="12">Terraces follow the hourglass curve.</text><text x="760" y="528" font-size="12">Four deeply pinched 25-floor bays.</text><text x="760" y="556" font-size="12">4 m stairways / bridges every floor.</text><path d="M760 680h122m-122 -5v10m61 -10v10m61 -10v10" class="line"/><text x="760" y="703" font-size="11">0　　　　　 25　　　　 50 m</text></svg>