<svg xmlns="http://www.w3.org/2000/svg" viewBox="0 0 1200 850"><defs><pattern id="hatch" width="6" height="6" patternUnits="userSpaceOnUse" patternTransform="rotate(45)"><path d="M0 0V6" stroke="#718088" stroke-width="1"/></pattern></defs><style>text{font-family:Arial,sans-serif;fill:#243e49}.small{font-size:12px;letter-spacing:1px}.line{fill:none;stroke:#254451;stroke-width:1.2}.fine{fill:none;stroke:#82969b;stroke-width:.6}.dash{fill:none;stroke:#82969b;stroke-width:.7;stroke-dasharray:7 6}</style><rect width="1200" height="850" fill="#f6f4ee"/><rect x="25" y="25" width="1150" height="800" class="fine"/><text x="55" y="67" font-size="27">STRUCTURE / 100</text><text x="55" y="92" class="small">LEVEL 059 / TERRACE PLAN · +348.00 m</text><path d="M55 115H1145 M55 755H1145" class="fine"/><text x="55" y="785" class="small">THE COMMON VOID / GLASS + CONCRETE / TWO-BLOCK MAXIMUM WIDTH</text><text x="55" y="807" font-size="10">ART STUDY / Imagined dimensions in metres. Architectural expression, not construction documentation.</text><text x="1030" y="790" font-size="22">P-059</text><circle cx="425" cy="422" r="68.93736041850741" fill="#dce8e8" stroke="#163843" stroke-width="2"/><circle cx="425" cy="422" r="53.77114112643578" fill="#e8dfce" stroke="#5b7b86"/><circle cx="425" cy="422" r="37.91554823017908" fill="#f6f4ee" stroke="#244b58" stroke-width="2"/><circle cx="425" cy="422" r="40.843548230179074" class="fine"/><circle cx="467.79554823017907" cy="422.0" r="1.6" fill="#ad6848"/><circle cx="466.3373252857294" cy="433.0763029275738" r="1.6" fill="#ad6848"/><circle cx="462.06203193621724" cy="443.39777411508953" r="1.6" fill="#ad6848"/><circle cx="455.26102235815557" cy="452.26102235815557" r="1.6" fill="#ad6848"/><circle cx="446.39777411508953" cy="459.06203193621724" r="1.6" fill="#ad6848"/><circle cx="436.0763029275738" cy="463.3373252857294" r="1.6" fill="#ad6848"/><circle cx="425.0" cy="464.79554823017907" r="1.6" fill="#ad6848"/><circle cx="413.9236970724262" cy="463.3373252857294" r="1.6" fill="#ad6848"/><circle cx="403.60222588491047" cy="459.06203193621724" r="1.6" fill="#ad6848"/><circle cx="394.73897764184443" cy="452.26102235815557" r="1.6" fill="#ad6848"/><circle cx="387.93796806378276" cy="443.39777411508953" r="1.6" fill="#ad6848"/><circle cx="383.6626747142706" cy="433.0763029275738" r="1.6" fill="#ad6848"/><circle cx="382.20445176982093" cy="422.0" r="1.6" fill="#ad6848"/><circle cx="383.6626747142706" cy="410.9236970724262" r="1.6" fill="#ad6848"/><circle cx="387.9379680637827" cy="400.60222588491047" r="1.6" fill="#ad6848"/><circle cx="394.73897764184443" cy="391.73897764184443" r="1.6" fill="#ad6848"/><circle cx="403.60222588491047" cy="384.93796806378276" r="1.6" fill="#ad6848"/><circle cx="413.9236970724262" cy="380.6626747142706" r="1.6" fill="#ad6848"/><circle cx="425.0" cy="379.20445176982093" r="1.6" fill="#ad6848"/><circle cx="436.0763029275738" cy="380.66267471427057" r="1.6" fill="#ad6848"/><circle cx="446.39777411508953" cy="384.93796806378276" r="1.6" fill="#ad6848"/><circle cx="455.26102235815557" cy="391.73897764184443" r="1.6" fill="#ad6848"/><circle cx="462.06203193621724" cy="400.60222588491047" r="1.6" fill="#ad6848"/><circle cx="466.3373252857294" cy="410.92369707242614" r="1.6" fill="#ad6848"/><path d="M357.99110101232213 431.76976757703164L193.2106272030083 455.7944412348719" stroke="#718578" stroke-width="9.76"/><circle cx="193.2106272030083" cy="455.7944412348719" r="4.88" fill="#526b60"/><text x="201.2106272030083" y="447.7944412348719" font-size="9">S1</text><path d="M415.23023242296836 354.99110101232213L391.2055587651281 190.2106272030083" stroke="#718578" stroke-width="9.76"/><circle cx="391.2055587651281" cy="190.2106272030083" r="4.88" fill="#526b60"/><text x="399.2055587651281" y="182.2106272030083" font-size="9">S2</text><path d="M492.00889898767787 412.23023242296836L656.7893727969918 388.20555876512805" stroke="#718578" stroke-width="9.76"/><circle cx="656.7893727969918" cy="388.20555876512805" r="4.88" fill="#526b60"/><text x="664.7893727969918" y="380.20555876512805" font-size="9">S3</text><path d="M434.76976757703164 489.00889898767787L458.79444123487195 653.7893727969918" stroke="#718578" stroke-width="9.76"/><circle cx="458.79444123487195" cy="653.7893727969918" r="4.88" fill="#526b60"/><text x="466.79444123487195" y="645.7893727969918" font-size="9">S4</text><text x="425" y="426" text-anchor="middle" font-size="10">VOID</text><path d="M356.0626395814926 700H493.9373604185074m0 -5v10M356.0626395814926 695v10" class="line"/><text x="425" y="726" text-anchor="middle" class="small">56.51 m / THIS LEVEL</text><text x="760" y="220" font-size="12">01 / Glass outer enclosure</text><text x="760" y="248" font-size="12">02 / Enclosed perimeter rooms</text><text x="760" y="276" font-size="12">03 / Shared inward-facing terrace</text><text x="760" y="304" font-size="12">04 / Transparent atrium balustrade</text><text x="760" y="332" font-size="12">05 / Four exterior stair landings</text><text x="760" y="360" font-size="12">06 / Open, unobstructed centre</text><text x="760" y="388" font-size="12"></text><text x="760" y="416" font-size="12">Terrace depth / 6.50 m</text><text x="760" y="444" font-size="12">Atrium diameter / 31.08 m</text><text x="760" y="472" font-size="12">Floor-to-floor / 6.00 m</text><text x="760" y="500" font-size="12">Terraces follow the hourglass curve.</text><text x="760" y="528" font-size="12">Four deeply pinched 25-floor bays.</text><text x="760" y="556" font-size="12">4 m stairways / bridges every floor.</text><path d="M760 680h122m-122 -5v10m61 -10v10m61 -10v10" class="line"/><text x="760" y="703" font-size="11">0　　　　　 25　　　　 50 m</text></svg>