<svg xmlns="http://www.w3.org/2000/svg" viewBox="0 0 1200 850"><defs><pattern id="hatch" width="6" height="6" patternUnits="userSpaceOnUse" patternTransform="rotate(45)"><path d="M0 0V6" stroke="#718088" stroke-width="1"/></pattern></defs><style>text{font-family:Arial,sans-serif;fill:#243e49}.small{font-size:12px;letter-spacing:1px}.line{fill:none;stroke:#254451;stroke-width:1.2}.fine{fill:none;stroke:#82969b;stroke-width:.6}.dash{fill:none;stroke:#82969b;stroke-width:.7;stroke-dasharray:7 6}</style><rect width="1200" height="850" fill="#f6f4ee"/><rect x="25" y="25" width="1150" height="800" class="fine"/><text x="55" y="67" font-size="27">STRUCTURE / 100</text><text x="55" y="92" class="small">LEVEL 037 / TERRACE PLAN · +216.00 m</text><path d="M55 115H1145 M55 755H1145" class="fine"/><text x="55" y="785" class="small">THE COMMON VOID / GLASS + CONCRETE / TWO-BLOCK MAXIMUM WIDTH</text><text x="55" y="807" font-size="10">ART STUDY / Imagined dimensions in metres. Architectural expression, not construction documentation.</text><text x="1030" y="790" font-size="22">P-037</text><circle cx="425" cy="422" r="64.45336388783397" fill="#dce8e8" stroke="#163843" stroke-width="2"/><circle cx="425" cy="422" r="50.2736238325105" fill="#e8dfce" stroke="#5b7b86"/><circle cx="425" cy="422" r="35.44935013830869" fill="#f6f4ee" stroke="#244b58" stroke-width="2"/><circle cx="425" cy="422" r="38.37735013830869" class="fine"/><circle cx="465.3293501383087" cy="422.0" r="1.6" fill="#ad6848"/><circle cx="463.955160856047" cy="432.43800389240226" r="1.6" fill="#ad6848"/><circle cx="459.9262417378928" cy="442.1646750691543" r="1.6" fill="#ad6848"/><circle cx="453.5171569636447" cy="450.5171569636447" r="1.6" fill="#ad6848"/><circle cx="445.1646750691543" cy="456.9262417378928" r="1.6" fill="#ad6848"/><circle cx="435.43800389240226" cy="460.955160856047" r="1.6" fill="#ad6848"/><circle cx="425.0" cy="462.3293501383087" r="1.6" fill="#ad6848"/><circle cx="414.56199610759774" cy="460.955160856047" r="1.6" fill="#ad6848"/><circle cx="404.8353249308457" cy="456.9262417378928" r="1.6" fill="#ad6848"/><circle cx="396.4828430363553" cy="450.5171569636447" r="1.6" fill="#ad6848"/><circle cx="390.0737582621072" cy="442.1646750691543" r="1.6" fill="#ad6848"/><circle cx="386.044839143953" cy="432.43800389240226" r="1.6" fill="#ad6848"/><circle cx="384.6706498616913" cy="422.0" r="1.6" fill="#ad6848"/><circle cx="386.044839143953" cy="411.56199610759774" r="1.6" fill="#ad6848"/><circle cx="390.0737582621072" cy="401.8353249308457" r="1.6" fill="#ad6848"/><circle cx="396.4828430363553" cy="393.4828430363553" r="1.6" fill="#ad6848"/><circle cx="404.8353249308456" cy="387.0737582621072" r="1.6" fill="#ad6848"/><circle cx="414.56199610759774" cy="383.044839143953" r="1.6" fill="#ad6848"/><circle cx="425.0" cy="381.6706498616913" r="1.6" fill="#ad6848"/><circle cx="435.43800389240226" cy="383.044839143953" r="1.6" fill="#ad6848"/><circle cx="445.1646750691543" cy="387.0737582621072" r="1.6" fill="#ad6848"/><circle cx="453.5171569636447" cy="393.4828430363553" r="1.6" fill="#ad6848"/><circle cx="459.9262417378928" cy="401.8353249308456" r="1.6" fill="#ad6848"/><circle cx="463.955160856047" cy="411.5619961075977" r="1.6" fill="#ad6848"/><path d="M479.77476731180144 390.4059629912663L627.9061986623952 304.96388529869677" stroke="#718578" stroke-width="9.76"/><circle cx="627.9061986623952" cy="304.96388529869677" r="4.88" fill="#526b60"/><text x="635.9061986623952" y="296.96388529869677" font-size="9">S1</text><path d="M456.5940370087337 476.77476731180144L542.0361147013033 624.9061986623952" stroke="#718578" stroke-width="9.76"/><circle cx="542.0361147013033" cy="624.9061986623952" r="4.88" fill="#526b60"/><text x="550.0361147013033" y="616.9061986623952" font-size="9">S2</text><path d="M370.22523268819856 453.5940370087337L222.0938013376048 539.0361147013033" stroke="#718578" stroke-width="9.76"/><circle cx="222.0938013376048" cy="539.0361147013033" r="4.88" fill="#526b60"/><text x="230.0938013376048" y="531.0361147013033" font-size="9">S3</text><path d="M393.4059629912663 367.22523268819856L307.9638852986967 219.0938013376048" stroke="#718578" stroke-width="9.76"/><circle cx="307.9638852986967" cy="219.0938013376048" r="4.88" fill="#526b60"/><text x="315.9638852986967" y="211.0938013376048" font-size="9">S4</text><text x="425" y="426" text-anchor="middle" font-size="10">VOID</text><path d="M360.546636112166 700H489.453363887834m0 -5v10M360.546636112166 695v10" class="line"/><text x="425" y="726" text-anchor="middle" class="small">52.83 m / THIS LEVEL</text><text x="760" y="220" font-size="12">01 / Glass outer enclosure</text><text x="760" y="248" font-size="12">02 / Enclosed perimeter rooms</text><text x="760" y="276" font-size="12">03 / Shared inward-facing terrace</text><text x="760" y="304" font-size="12">04 / Transparent atrium balustrade</text><text x="760" y="332" font-size="12">05 / Four exterior stair landings</text><text x="760" y="360" font-size="12">06 / Open, unobstructed centre</text><text x="760" y="388" font-size="12"></text><text x="760" y="416" font-size="12">Terrace depth / 6.08 m</text><text x="760" y="444" font-size="12">Atrium diameter / 29.06 m</text><text x="760" y="472" font-size="12">Floor-to-floor / 6.00 m</text><text x="760" y="500" font-size="12">Terraces follow the hourglass curve.</text><text x="760" y="528" font-size="12">Four deeply pinched 25-floor bays.</text><text x="760" y="556" font-size="12">4 m stairways / bridges every floor.</text><path d="M760 680h122m-122 -5v10m61 -10v10m61 -10v10" class="line"/><text x="760" y="703" font-size="11">0　　　　　 25　　　　 50 m</text></svg>