<svg xmlns="http://www.w3.org/2000/svg" viewBox="0 0 1200 850"><defs><pattern id="hatch" width="6" height="6" patternUnits="userSpaceOnUse" patternTransform="rotate(45)"><path d="M0 0V6" stroke="#718088" stroke-width="1"/></pattern></defs><style>text{font-family:Arial,sans-serif;fill:#243e49}.small{font-size:12px;letter-spacing:1px}.line{fill:none;stroke:#254451;stroke-width:1.2}.fine{fill:none;stroke:#82969b;stroke-width:.6}.dash{fill:none;stroke:#82969b;stroke-width:.7;stroke-dasharray:7 6}</style><rect width="1200" height="850" fill="#f6f4ee"/><rect x="25" y="25" width="1150" height="800" class="fine"/><text x="55" y="67" font-size="27">STRUCTURE / 100</text><text x="55" y="92" class="small">LEVEL 066 / TERRACE PLAN · +390.00 m</text><path d="M55 115H1145 M55 755H1145" class="fine"/><text x="55" y="785" class="small">THE COMMON VOID / GLASS + CONCRETE / TWO-BLOCK MAXIMUM WIDTH</text><text x="55" y="807" font-size="10">ART STUDY / Imagined dimensions in metres. Architectural expression, not construction documentation.</text><text x="1030" y="790" font-size="22">P-066</text><circle cx="425" cy="422" r="92.44153749801406" fill="#dce8e8" stroke="#163843" stroke-width="2"/><circle cx="425" cy="422" r="72.10439924845096" fill="#e8dfce" stroke="#5b7b86"/><circle cx="425" cy="422" r="50.84284562390774" fill="#f6f4ee" stroke="#244b58" stroke-width="2"/><circle cx="425" cy="422" r="53.77084562390774" class="fine"/><circle cx="480.72284562390774" cy="422.0" r="1.6" fill="#ad6848"/><circle cx="478.82413570245126" cy="436.42213369477497" r="1.6" fill="#ad6848"/><circle cx="473.2573998814627" cy="449.86142281195384" r="1.6" fill="#ad6848"/><circle cx="464.4020020076763" cy="461.4020020076763" r="1.6" fill="#ad6848"/><circle cx="452.8614228119539" cy="470.2573998814626" r="1.6" fill="#ad6848"/><circle cx="439.42213369477497" cy="475.82413570245126" r="1.6" fill="#ad6848"/><circle cx="425.0" cy="477.72284562390774" r="1.6" fill="#ad6848"/><circle cx="410.57786630522503" cy="475.82413570245126" r="1.6" fill="#ad6848"/><circle cx="397.13857718804616" cy="470.2573998814627" r="1.6" fill="#ad6848"/><circle cx="385.5979979923237" cy="461.4020020076763" r="1.6" fill="#ad6848"/><circle cx="376.7426001185373" cy="449.86142281195384" r="1.6" fill="#ad6848"/><circle cx="371.17586429754874" cy="436.42213369477497" r="1.6" fill="#ad6848"/><circle cx="369.27715437609226" cy="422.0" r="1.6" fill="#ad6848"/><circle cx="371.17586429754874" cy="407.57786630522503" r="1.6" fill="#ad6848"/><circle cx="376.7426001185373" cy="394.13857718804616" r="1.6" fill="#ad6848"/><circle cx="385.59799799232366" cy="382.5979979923237" r="1.6" fill="#ad6848"/><circle cx="397.1385771880461" cy="373.7426001185374" r="1.6" fill="#ad6848"/><circle cx="410.57786630522503" cy="368.17586429754874" r="1.6" fill="#ad6848"/><circle cx="425.0" cy="366.27715437609226" r="1.6" fill="#ad6848"/><circle cx="439.42213369477497" cy="368.17586429754874" r="1.6" fill="#ad6848"/><circle cx="452.8614228119539" cy="373.7426001185374" r="1.6" fill="#ad6848"/><circle cx="464.4020020076763" cy="382.5979979923237" r="1.6" fill="#ad6848"/><circle cx="473.2573998814626" cy="394.1385771880461" r="1.6" fill="#ad6848"/><circle cx="478.82413570245126" cy="407.577866305225" r="1.6" fill="#ad6848"/><path d="M373.8261535253065 346.4843967084545L293.5950475402459 228.08992788137647" stroke="#718578" stroke-width="9.76"/><circle cx="293.5950475402459" cy="228.08992788137647" r="4.88" fill="#526b60"/><text x="301.5950475402459" y="220.08992788137647" font-size="9">S1</text><path d="M500.5156032915455 370.8261535253065L618.9100721186235 290.5950475402459" stroke="#718578" stroke-width="9.76"/><circle cx="618.9100721186235" cy="290.5950475402459" r="4.88" fill="#526b60"/><text x="626.9100721186235" y="282.5950475402459" font-size="9">S2</text><path d="M476.1738464746935 497.5156032915455L556.4049524597541 615.9100721186235" stroke="#718578" stroke-width="9.76"/><circle cx="556.4049524597541" cy="615.9100721186235" r="4.88" fill="#526b60"/><text x="564.4049524597541" y="607.9100721186235" font-size="9">S3</text><path d="M349.4843967084545 473.1738464746935L231.0899278813765 553.4049524597541" stroke="#718578" stroke-width="9.76"/><circle cx="231.0899278813765" cy="553.4049524597541" r="4.88" fill="#526b60"/><text x="239.0899278813765" y="545.4049524597541" font-size="9">S4</text><text x="425" y="426" text-anchor="middle" font-size="10">VOID</text><path d="M332.55846250198596 700H517.4415374980141m0 -5v10M332.55846250198596 695v10" class="line"/><text x="425" y="726" text-anchor="middle" class="small">75.77 m / THIS LEVEL</text><text x="760" y="220" font-size="12">01 / Glass outer enclosure</text><text x="760" y="248" font-size="12">02 / Enclosed perimeter rooms</text><text x="760" y="276" font-size="12">03 / Shared inward-facing terrace</text><text x="760" y="304" font-size="12">04 / Transparent atrium balustrade</text><text x="760" y="332" font-size="12">05 / Four exterior stair landings</text><text x="760" y="360" font-size="12">06 / Open, unobstructed centre</text><text x="760" y="388" font-size="12"></text><text x="760" y="416" font-size="12">Terrace depth / 8.71 m</text><text x="760" y="444" font-size="12">Atrium diameter / 41.67 m</text><text x="760" y="472" font-size="12">Floor-to-floor / 6.00 m</text><text x="760" y="500" font-size="12">Terraces follow the hourglass curve.</text><text x="760" y="528" font-size="12">Four deeply pinched 25-floor bays.</text><text x="760" y="556" font-size="12">4 m stairways / bridges every floor.</text><path d="M760 680h122m-122 -5v10m61 -10v10m61 -10v10" class="line"/><text x="760" y="703" font-size="11">0　　　　　 25　　　　 50 m</text></svg>