<svg xmlns="http://www.w3.org/2000/svg" viewBox="0 0 1200 850"><defs><pattern id="hatch" width="6" height="6" patternUnits="userSpaceOnUse" patternTransform="rotate(45)"><path d="M0 0V6" stroke="#718088" stroke-width="1"/></pattern></defs><style>text{font-family:Arial,sans-serif;fill:#243e49}.small{font-size:12px;letter-spacing:1px}.line{fill:none;stroke:#254451;stroke-width:1.2}.fine{fill:none;stroke:#82969b;stroke-width:.6}.dash{fill:none;stroke:#82969b;stroke-width:.7;stroke-dasharray:7 6}</style><rect width="1200" height="850" fill="#f6f4ee"/><rect x="25" y="25" width="1150" height="800" class="fine"/><text x="55" y="67" font-size="27">STRUCTURE / 200</text><text x="55" y="92" class="small">LEVEL 154 / TERRACE PLAN · +918.00 m</text><path d="M55 115H1145 M55 755H1145" class="fine"/><text x="55" y="785" class="small">THE COMMON VOID / GLASS + CONCRETE / QUARTER-MILE DIAMETER</text><text x="55" y="807" font-size="10">ART STUDY / Imagined dimensions in metres. Architectural expression, not construction documentation.</text><text x="1030" y="790" font-size="22">P-154</text><circle cx="425" cy="422" r="245.42496" fill="#dce8e8" stroke="#163843" stroke-width="2"/><circle cx="425" cy="422" r="201.29999999999998" fill="#e8dfce" stroke="#5b7b86"/><circle cx="425" cy="422" r="140.29999999999998" fill="#f6f4ee" stroke="#244b58" stroke-width="2"/><circle cx="425" cy="422" r="141.764" class="fine"/><rect x="640.9399999999999" y="411.02" width="14.64" height="21.96" fill="url(#hatch)" stroke="#254451"/><text x="648.26" y="425.0" font-size="8" text-anchor="middle">C1</text><rect x="417.68" y="634.28" width="14.64" height="21.96" fill="url(#hatch)" stroke="#254451"/><text x="425.0" y="648.26" font-size="8" text-anchor="middle">C2</text><rect x="194.42000000000002" y="411.02" width="14.64" height="21.96" fill="url(#hatch)" stroke="#254451"/><text x="201.74" y="425.0" font-size="8" text-anchor="middle">C3</text><rect x="417.67999999999995" y="187.76000000000002" width="14.64" height="21.96" fill="url(#hatch)" stroke="#254451"/><text x="424.99999999999994" y="201.74" font-size="8" text-anchor="middle">C4</text><circle cx="571.4" cy="422.0" r="1.6" fill="#ad6848"/><circle cx="566.4115409687196" cy="459.891108203009" r="1.6" fill="#ad6848"/><circle cx="551.7861191140419" cy="495.2" r="1.6" fill="#ad6848"/><circle cx="528.5204327657106" cy="525.5204327657106" r="1.6" fill="#ad6848"/><circle cx="498.20000000000005" cy="548.7861191140419" r="1.6" fill="#ad6848"/><circle cx="462.891108203009" cy="563.4115409687196" r="1.6" fill="#ad6848"/><circle cx="425.0" cy="568.4" r="1.6" fill="#ad6848"/><circle cx="387.108891796991" cy="563.4115409687196" r="1.6" fill="#ad6848"/><circle cx="351.8" cy="548.7861191140419" r="1.6" fill="#ad6848"/><circle cx="321.47956723428945" cy="525.5204327657106" r="1.6" fill="#ad6848"/><circle cx="298.21388088595813" cy="495.2" r="1.6" fill="#ad6848"/><circle cx="283.5884590312804" cy="459.8911082030091" r="1.6" fill="#ad6848"/><circle cx="278.6" cy="422.0" r="1.6" fill="#ad6848"/><circle cx="283.5884590312804" cy="384.108891796991" r="1.6" fill="#ad6848"/><circle cx="298.21388088595813" cy="348.8" r="1.6" fill="#ad6848"/><circle cx="321.4795672342894" cy="318.4795672342895" r="1.6" fill="#ad6848"/><circle cx="351.79999999999995" cy="295.21388088595825" r="1.6" fill="#ad6848"/><circle cx="387.108891796991" cy="280.5884590312804" r="1.6" fill="#ad6848"/><circle cx="425.0" cy="275.6" r="1.6" fill="#ad6848"/><circle cx="462.89110820300897" cy="280.58845903128037" r="1.6" fill="#ad6848"/><circle cx="498.20000000000005" cy="295.2138808859582" r="1.6" fill="#ad6848"/><circle cx="528.5204327657106" cy="318.47956723428945" r="1.6" fill="#ad6848"/><circle cx="551.7861191140418" cy="348.79999999999995" r="1.6" fill="#ad6848"/><circle cx="566.4115409687196" cy="384.10889179699086" r="1.6" fill="#ad6848"/><text x="425" y="407" text-anchor="middle" class="small">OPEN ATRIUM</text><text x="425" y="430" text-anchor="middle" font-size="12">Ø 230.00 m / OPEN TO SKY</text><path d="M292.70000000000005 452H557.3" stroke="#b87554" stroke-dasharray="6 5"/><text x="425" y="474" font-size="10" text-anchor="middle">SIGHTLINE ACROSS SHARED VOID</text><path d="M179.57504 700H670.42496m0 -5v10M179.57504 695v10" class="line"/><text x="425" y="726" text-anchor="middle" class="small">402.336 m / QUARTER MILE</text><text x="760" y="220" font-size="12">01 / Glass outer enclosure</text><text x="760" y="248" font-size="12">02 / Enclosed perimeter rooms</text><text x="760" y="276" font-size="12">03 / Shared inward-facing terrace</text><text x="760" y="304" font-size="12">04 / Transparent atrium balustrade</text><text x="760" y="332" font-size="12">05 / Four perimeter circulation cores</text><text x="760" y="360" font-size="12">06 / Open, unobstructed centre</text><text x="760" y="388" font-size="12"></text><text x="760" y="416" font-size="12">Terrace depth / 50.00 m</text><text x="760" y="444" font-size="12">Atrium diameter / 230.00 m</text><text x="760" y="472" font-size="12">Floor-to-floor / 6.00 m</text><text x="760" y="500" font-size="12">Terraces step every five floors.</text><text x="760" y="528" font-size="12">Four repeated sculptural bowls.</text><text x="760" y="556" font-size="12">People symbols are illustrative.</text><path d="M760 680h122m-122 -5v10m61 -10v10m61 -10v10" class="line"/><text x="760" y="703" font-size="11">0　　　　　 50　　　　 100 m</text></svg>