<svg xmlns="http://www.w3.org/2000/svg" viewBox="0 0 1200 850"><defs><pattern id="hatch" width="6" height="6" patternUnits="userSpaceOnUse" patternTransform="rotate(45)"><path d="M0 0V6" stroke="#718088" stroke-width="1"/></pattern></defs><style>text{font-family:Arial,sans-serif;fill:#243e49}.small{font-size:12px;letter-spacing:1px}.line{fill:none;stroke:#254451;stroke-width:1.2}.fine{fill:none;stroke:#82969b;stroke-width:.6}.dash{fill:none;stroke:#82969b;stroke-width:.7;stroke-dasharray:7 6}</style><rect width="1200" height="850" fill="#f6f4ee"/><rect x="25" y="25" width="1150" height="800" class="fine"/><text x="55" y="67" font-size="27">STRUCTURE / 200</text><text x="55" y="92" class="small">LEVEL 137 / TERRACE PLAN · +816.00 m</text><path d="M55 115H1145 M55 755H1145" class="fine"/><text x="55" y="785" class="small">THE COMMON VOID / GLASS + CONCRETE / QUARTER-MILE DIAMETER</text><text x="55" y="807" font-size="10">ART STUDY / Imagined dimensions in metres. Architectural expression, not construction documentation.</text><text x="1030" y="790" font-size="22">P-137</text><circle cx="425" cy="422" r="245.42496" fill="#dce8e8" stroke="#163843" stroke-width="2"/><circle cx="425" cy="422" r="201.29999999999998" fill="#e8dfce" stroke="#5b7b86"/><circle cx="425" cy="422" r="164.02222222222224" fill="#f6f4ee" stroke="#244b58" stroke-width="2"/><circle cx="425" cy="422" r="165.4862222222222" class="fine"/><rect x="640.9399999999999" y="411.02" width="14.64" height="21.96" fill="url(#hatch)" stroke="#254451"/><text x="648.26" y="425.0" font-size="8" text-anchor="middle">C1</text><rect x="417.68" y="634.28" width="14.64" height="21.96" fill="url(#hatch)" stroke="#254451"/><text x="425.0" y="648.26" font-size="8" text-anchor="middle">C2</text><rect x="194.42000000000002" y="411.02" width="14.64" height="21.96" fill="url(#hatch)" stroke="#254451"/><text x="201.74" y="425.0" font-size="8" text-anchor="middle">C3</text><rect x="417.67999999999995" y="187.76000000000002" width="14.64" height="21.96" fill="url(#hatch)" stroke="#254451"/><text x="424.99999999999994" y="201.74" font-size="8" text-anchor="middle">C4</text><circle cx="595.1222222222223" cy="422.0" r="1.6" fill="#ad6848"/><circle cx="589.3254480701326" cy="466.0308711062744" r="1.6" fill="#ad6848"/><circle cx="572.330166192706" cy="507.06111111111113" r="1.6" fill="#ad6848"/><circle cx="545.2945769638582" cy="542.2945769638582" r="1.6" fill="#ad6848"/><circle cx="510.06111111111113" cy="569.330166192706" r="1.6" fill="#ad6848"/><circle cx="469.0308711062744" cy="586.3254480701326" r="1.6" fill="#ad6848"/><circle cx="425.0" cy="592.1222222222223" r="1.6" fill="#ad6848"/><circle cx="380.9691288937256" cy="586.3254480701326" r="1.6" fill="#ad6848"/><circle cx="339.9388888888889" cy="569.330166192706" r="1.6" fill="#ad6848"/><circle cx="304.7054230361419" cy="542.2945769638582" r="1.6" fill="#ad6848"/><circle cx="277.66983380729397" cy="507.06111111111113" r="1.6" fill="#ad6848"/><circle cx="260.6745519298675" cy="466.03087110627445" r="1.6" fill="#ad6848"/><circle cx="254.87777777777777" cy="422.0" r="1.6" fill="#ad6848"/><circle cx="260.67455192986745" cy="377.9691288937256" r="1.6" fill="#ad6848"/><circle cx="277.66983380729397" cy="336.9388888888889" r="1.6" fill="#ad6848"/><circle cx="304.70542303614184" cy="301.70542303614195" r="1.6" fill="#ad6848"/><circle cx="339.9388888888888" cy="274.669833807294" r="1.6" fill="#ad6848"/><circle cx="380.9691288937256" cy="257.67455192986745" r="1.6" fill="#ad6848"/><circle cx="424.99999999999994" cy="251.87777777777777" r="1.6" fill="#ad6848"/><circle cx="469.03087110627433" cy="257.67455192986745" r="1.6" fill="#ad6848"/><circle cx="510.06111111111113" cy="274.669833807294" r="1.6" fill="#ad6848"/><circle cx="545.294576963858" cy="301.70542303614184" r="1.6" fill="#ad6848"/><circle cx="572.330166192706" cy="336.9388888888888" r="1.6" fill="#ad6848"/><circle cx="589.3254480701324" cy="377.9691288937255" r="1.6" fill="#ad6848"/><text x="425" y="407" text-anchor="middle" class="small">OPEN ATRIUM</text><text x="425" y="430" text-anchor="middle" font-size="12">Ø 268.89 m / OPEN TO SKY</text><path d="M268.97777777777776 452H581.0222222222222" stroke="#b87554" stroke-dasharray="6 5"/><text x="425" y="474" font-size="10" text-anchor="middle">SIGHTLINE ACROSS SHARED VOID</text><path d="M179.57504 700H670.42496m0 -5v10M179.57504 695v10" class="line"/><text x="425" y="726" text-anchor="middle" class="small">402.336 m / QUARTER MILE</text><text x="760" y="220" font-size="12">01 / Glass outer enclosure</text><text x="760" y="248" font-size="12">02 / Enclosed perimeter rooms</text><text x="760" y="276" font-size="12">03 / Shared inward-facing terrace</text><text x="760" y="304" font-size="12">04 / Transparent atrium balustrade</text><text x="760" y="332" font-size="12">05 / Four perimeter circulation cores</text><text x="760" y="360" font-size="12">06 / Open, unobstructed centre</text><text x="760" y="388" font-size="12"></text><text x="760" y="416" font-size="12">Terrace depth / 30.56 m</text><text x="760" y="444" font-size="12">Atrium diameter / 268.89 m</text><text x="760" y="472" font-size="12">Floor-to-floor / 6.00 m</text><text x="760" y="500" font-size="12">Terraces step every five floors.</text><text x="760" y="528" font-size="12">Four repeated sculptural bowls.</text><text x="760" y="556" font-size="12">People symbols are illustrative.</text><path d="M760 680h122m-122 -5v10m61 -10v10m61 -10v10" class="line"/><text x="760" y="703" font-size="11">0　　　　　 50　　　　 100 m</text></svg>